<svg width="33" height="34" viewBox="0 0 33 34" fill="none" xmlns="http://www.w3.org/2000/svg">
<rect x="0.121094" y="0.90332" width="32.7596" height="32.7596" rx="16.3798" fill="#FCFCFC"/>
<g clip-path="url(#clip0_129_2554)">
<path d="M16.0428 10.5781C18.2277 10.5781 18.4865 10.5876 19.3457 10.626C20.1443 10.6611 20.5756 10.7953 20.863 10.9071C21.2432 11.054 21.5179 11.2329 21.8022 11.5172C22.0897 11.8047 22.2654 12.0762 22.4123 12.4563C22.5241 12.7438 22.6583 13.1783 22.6934 13.9737C22.7317 14.8361 22.7413 15.0949 22.7413 17.2766C22.7413 19.4616 22.7317 19.7203 22.6934 20.5796C22.6583 21.3782 22.5241 21.8094 22.4123 22.0969C22.2654 22.477 22.0865 22.7517 21.8022 23.036C21.5147 23.3235 21.2432 23.4992 20.863 23.6462C20.5756 23.758 20.1411 23.8921 19.3457 23.9273C18.4833 23.9656 18.2245 23.9752 16.0428 23.9752C13.8578 23.9752 13.5991 23.9656 12.7398 23.9273C11.9412 23.8921 11.51 23.758 11.2225 23.6462C10.8424 23.4992 10.5677 23.3203 10.2834 23.036C9.99587 22.7485 9.82018 22.477 9.67324 22.0969C9.56143 21.8094 9.42727 21.375 9.39213 20.5796C9.3538 19.7171 9.34422 19.4584 9.34422 17.2766C9.34422 15.0917 9.3538 14.8329 9.39213 13.9737C9.42727 13.1751 9.56143 12.7438 9.67324 12.4563C9.82018 12.0762 9.99906 11.8015 10.2834 11.5172C10.5708 11.2297 10.8424 11.054 11.2225 10.9071C11.51 10.7953 11.9444 10.6611 12.7398 10.626C13.5991 10.5876 13.8578 10.5781 16.0428 10.5781ZM16.0428 9.10547C13.8227 9.10547 13.5448 9.11505 12.6727 9.15338C11.8039 9.19172 11.2065 9.33227 10.689 9.53351C10.1492 9.74434 9.6924 10.0222 9.23881 10.479C8.78201 10.9326 8.5041 11.3894 8.29328 11.9261C8.09203 12.4468 7.95148 13.0409 7.91315 13.9098C7.87482 14.785 7.86523 15.0629 7.86523 17.283C7.86523 19.5031 7.87482 19.781 7.91315 20.653C7.95148 21.5219 8.09203 22.1193 8.29328 22.6367C8.5041 23.1766 8.78201 23.6334 9.23881 24.087C9.6924 24.5406 10.1492 24.8217 10.6858 25.0293C11.2065 25.2305 11.8007 25.3711 12.6695 25.4094C13.5416 25.4478 13.8195 25.4573 16.0396 25.4573C18.2597 25.4573 18.5376 25.4478 19.4096 25.4094C20.2785 25.3711 20.8758 25.2305 21.3933 25.0293C21.93 24.8217 22.3868 24.5406 22.8403 24.087C23.2939 23.6334 23.575 23.1766 23.7827 22.6399C23.9839 22.1193 24.1245 21.5251 24.1628 20.6562C24.2011 19.7842 24.2107 19.5063 24.2107 17.2862C24.2107 15.0661 24.2011 14.7882 24.1628 13.9162C24.1245 13.0473 23.9839 12.45 23.7827 11.9325C23.5814 11.3894 23.3035 10.9326 22.8467 10.479C22.3931 10.0254 21.9363 9.74434 21.3997 9.53671C20.879 9.33546 20.2849 9.19491 19.416 9.15658C18.5408 9.11505 18.2628 9.10547 16.0428 9.10547Z" fill="#131313"/>
<path d="M16.0424 13.0825C13.7233 13.0825 11.8418 14.964 11.8418 17.2831C11.8418 19.6022 13.7233 21.4837 16.0424 21.4837C18.3615 21.4837 20.2429 19.6022 20.2429 17.2831C20.2429 14.964 18.3615 13.0825 16.0424 13.0825ZM16.0424 20.0079C14.5378 20.0079 13.3176 18.7876 13.3176 17.2831C13.3176 15.7786 14.5378 14.5583 16.0424 14.5583C17.5469 14.5583 18.7671 15.7786 18.7671 17.2831C18.7671 18.7876 17.5469 20.0079 16.0424 20.0079Z" fill="#131313"/>
<path d="M21.391 12.9162C21.391 13.4593 20.9502 13.8969 20.4104 13.8969C19.8673 13.8969 19.4297 13.4561 19.4297 12.9162C19.4297 12.3732 19.8705 11.9355 20.4104 11.9355C20.9502 11.9355 21.391 12.3764 21.391 12.9162Z" fill="#131313"/>
</g>
<defs>
<clipPath id="clip0_129_2554">
<rect width="16.3551" height="16.3551" fill="white" transform="translate(7.86523 9.10547)"/>
</clipPath>
</defs>
</svg>
