<svg width="33" height="34" viewBox="0 0 33 34" fill="none" xmlns="http://www.w3.org/2000/svg">
<rect x="0.240234" y="0.90332" width="32.7596" height="32.7596" rx="16.3798" fill="#FCFCFC"/>
<g clip-path="url(#clip0_129_2556)">
<path d="M23.1288 9.10547H9.19184C8.52422 9.10547 7.98438 9.63254 7.98438 10.2842V24.2786C7.98438 24.9303 8.52422 25.4605 9.19184 25.4605H23.1288C23.7964 25.4605 24.3394 24.9303 24.3394 24.2818V10.2842C24.3394 9.63254 23.7964 9.10547 23.1288 9.10547ZM12.8366 23.0424H10.4089V15.2354H12.8366V23.0424ZM11.6227 14.1717C10.8433 14.1717 10.214 13.5424 10.214 12.7662C10.214 11.99 10.8433 11.3607 11.6227 11.3607C12.399 11.3607 13.0283 11.99 13.0283 12.7662C13.0283 13.5392 12.399 14.1717 11.6227 14.1717ZM21.9213 23.0424H19.4968V19.2475C19.4968 18.3435 19.4808 17.1776 18.235 17.1776C16.9733 17.1776 16.7816 18.1646 16.7816 19.1836V23.0424H14.3603V15.2354H16.6858V16.3023H16.7177C17.0404 15.689 17.8326 15.0406 19.0113 15.0406C21.4677 15.0406 21.9213 16.6569 21.9213 18.7588V23.0424Z" fill="#131313"/>
</g>
<defs>
<clipPath id="clip0_129_2556">
<rect width="16.3551" height="16.3551" fill="white" transform="translate(7.98438 9.10547)"/>
</clipPath>
</defs>
</svg>
