<svg width="1465" height="542" viewBox="0 0 1465 542" fill="none" xmlns="http://www.w3.org/2000/svg">
<path d="M48.1406 539.145V409.178H88.5798C95.3349 409.178 101.421 410.818 106.837 414.098C112.314 417.378 116.635 421.865 119.799 427.559C122.964 433.191 124.546 439.534 124.546 446.59C124.546 453.212 123.146 459.184 120.347 464.507C117.548 469.829 113.744 474.161 108.936 477.503C104.189 480.845 98.895 482.857 93.0527 483.538L124.637 539.145H115.509L84.0155 484.002H55.9911V539.145H48.1406ZM55.9911 476.018H88.2147C93.4483 476.018 98.2256 474.749 102.546 472.212C106.867 469.613 110.306 466.085 112.862 461.629C115.418 457.111 116.696 452.036 116.696 446.404C116.696 440.71 115.418 435.635 112.862 431.179C110.306 426.661 106.867 423.134 102.546 420.596C98.2256 417.997 93.4483 416.697 88.2147 416.697H55.9911V476.018Z" fill="#131313"/>
<path d="M340.111 541.559C329.887 541.559 321.124 539.021 313.821 533.946C306.579 528.871 301.01 522.064 297.116 513.523C293.282 504.92 291.365 495.389 291.365 484.93V409.178H299.215V484.93C299.215 493.78 300.767 501.888 303.871 509.253C307.035 516.617 311.66 522.528 317.746 526.984C323.893 531.378 331.347 533.575 340.111 533.575C349.057 533.575 356.542 531.347 362.567 526.891C368.652 522.373 373.247 516.432 376.351 509.067C379.455 501.702 381.006 493.656 381.006 484.93V409.178H388.857V484.93C388.857 492.79 387.761 500.155 385.571 507.024C383.38 513.832 380.185 519.836 375.986 525.034C371.847 530.233 366.736 534.287 360.65 537.195C354.625 540.104 347.779 541.559 340.111 541.559Z" fill="#131313"/>
<path d="M556.518 539.145V409.178H565.099L639.496 524.756V409.178H647.347V539.145H638.949L564.369 423.567V539.145H556.518Z" fill="#131313"/>
<path d="M842.836 539.145L810.156 409.178H818.189L847.674 526.52L877.068 409.178H883.64L913.125 526.52L942.519 409.178H950.552L918.055 539.145H908.196L880.354 428.394L852.512 539.145H842.836Z" fill="#131313"/>
<path d="M1138.11 409.178H1148.88L1195.44 539.145H1187.13L1176.27 508.788H1110.82L1099.95 539.145H1091.55L1138.11 409.178ZM1113.65 500.805H1173.35L1143.5 417.533L1113.65 500.805Z" fill="#131313"/>
<path d="M1418.89 409.178H1428.11L1385.48 480.196V539.145H1377.63V480.196L1335.09 409.178H1344.31L1381.56 471.376L1418.89 409.178Z" fill="#131313"/>
<path d="M0 300.72H47.4174V13.44H0V7.56001H137.553V13.44H90.1358V300.72H137.553V306.6H0V300.72Z" fill="#131313"/>
<path d="M169.541 300.72H216.959V13.44H169.541V7.56001H260.959L405.347 236.46H406.201V13.44H358.784V7.56001H460.027V13.44H412.609V312.48H404.065L224.221 30.66H223.367V300.72H270.784V306.6H169.541V300.72Z" fill="#131313"/>
<path d="M478.273 216.3H482.972C486.105 231.42 490.092 244.16 494.933 254.52C500.06 264.88 505.613 273.42 511.594 280.14C517.574 286.86 523.839 292.04 530.39 295.68C536.94 299.32 543.49 301.98 550.04 303.66C556.875 305.34 563.283 306.32 569.263 306.6C575.529 306.88 581.367 307.02 586.778 307.02C601.872 307.02 614.26 304.78 623.943 300.3C633.626 295.82 641.315 290.22 647.011 283.5C652.707 276.5 656.694 269.08 658.972 261.24C661.25 253.12 662.389 245.7 662.389 238.98C662.389 229.18 660.538 220.78 656.836 213.78C653.134 206.78 648.435 200.9 642.739 196.14C637.043 191.1 630.778 187.04 623.943 183.96C617.393 180.88 611.127 178.5 605.147 176.82L556.021 162.12C532.953 155.12 515.438 145.88 503.477 134.4C491.801 122.92 485.962 107.52 485.962 88.2001C485.962 75.6001 488.241 63.9801 492.797 53.34C497.354 42.42 503.762 33.04 512.021 25.2C520.28 17.36 530.105 11.2 541.496 6.72C553.173 2.24 565.846 0 579.516 0C589.483 0 597.742 0.839998 604.292 2.52C611.127 4.19999 616.966 6.15999 621.807 8.4C626.648 10.36 630.92 12.18 634.622 13.86C638.609 15.54 642.597 16.38 646.584 16.38C650.286 16.38 652.707 15.96 653.846 15.12C655.27 14 657.121 11.48 659.399 7.56001H665.38V83.5801H660.253C658.545 73.5001 655.555 63.8401 651.283 54.6001C647.296 45.0801 642.027 36.82 635.477 29.82C628.927 22.54 620.953 16.8 611.555 12.6C602.441 8.12 591.762 5.88001 579.516 5.88001C572.681 5.88001 565.134 6.86 556.875 8.82C548.616 10.5 540.927 13.58 533.807 18.06C526.687 22.54 520.707 28.42 515.865 35.7C511.309 42.98 509.03 52.2201 509.03 63.4201C509.03 72.3801 510.882 80.0801 514.584 86.5201C518.286 92.6801 522.985 98.0001 528.681 102.48C534.661 106.68 541.212 110.32 548.331 113.4C555.736 116.2 563.14 118.72 570.545 120.96L622.234 136.92C627.645 138.6 634.48 140.84 642.739 143.64C650.998 146.44 658.972 150.64 666.661 156.24C674.635 161.84 681.328 169.26 686.739 178.5C692.435 187.74 695.283 199.5 695.283 213.78C695.283 226.94 692.719 239.54 687.593 251.58C682.752 263.34 675.632 273.84 666.234 283.08C656.836 292.04 645.444 299.32 632.059 304.92C618.674 310.24 603.58 312.9 586.778 312.9C580.797 312.9 575.529 312.76 570.972 312.48C566.415 312.48 562.144 312.2 558.157 311.64C554.169 311.08 550.182 310.38 546.195 309.54C542.208 308.98 537.794 308 532.953 306.6C527.257 304.92 521.134 302.96 514.584 300.72C508.034 298.48 502.338 297.36 497.496 297.36C493.225 297.36 490.234 298.2 488.526 299.88C487.102 301.56 485.82 303.8 484.681 306.6H478.273V216.3Z" fill="#131313"/>
<path d="M709.058 300.72H756.475V13.44H709.058V7.56001H846.611V13.44H799.193V300.72H846.611V306.6H709.058V300.72Z" fill="#131313"/>
<path d="M972.58 300.72C977.421 301.28 982.975 301.7 989.24 301.98C995.79 302.26 1002.91 302.4 1010.6 302.4C1020.28 302.4 1029.82 301.98 1039.22 301.14C1048.9 300.02 1058.02 297.92 1066.56 294.84C1075.39 291.48 1083.51 286.86 1090.91 280.98C1098.6 274.82 1105.43 266.84 1111.41 257.04C1120.53 241.92 1126.79 226.52 1130.21 210.84C1133.91 194.88 1135.76 177.52 1135.76 158.76C1135.76 136.64 1133.63 116.62 1129.36 98.7001C1125.08 80.5001 1117.96 65.1001 1108 52.5001C1098.31 39.62 1085.36 29.68 1069.12 22.68C1052.89 15.68 1032.81 12.18 1008.89 12.18C1001.77 12.18 995.22 12.32 989.24 12.6C983.544 12.88 977.991 13.16 972.58 13.44V300.72ZM882.444 300.72H929.861V13.44H882.444V7.56001H961.9C965.887 7.56001 969.874 7.56001 973.861 7.56001C977.848 7.28 981.835 6.99999 985.822 6.72C989.809 6.72 993.797 6.72 997.784 6.72C1001.77 6.44 1005.76 6.3 1009.74 6.3C1018.29 6.3 1025.84 6.44 1032.39 6.72C1039.22 6.99999 1045.49 7.55999 1051.18 8.4C1057.16 8.96001 1062.72 9.94002 1067.84 11.34C1073.25 12.46 1078.95 14 1084.93 15.96C1102.3 21.56 1117.25 29.12 1129.78 38.64C1142.6 47.8801 1152.99 58.6601 1160.97 70.9801C1169.23 83.3001 1175.21 96.7401 1178.91 111.3C1182.9 125.86 1184.89 141.12 1184.89 157.08C1184.89 175.56 1182.61 192.22 1178.06 207.06C1173.5 221.62 1167.23 234.64 1159.26 246.12C1151.28 257.32 1141.89 267.12 1131.06 275.52C1120.53 283.64 1109.14 290.22 1096.89 295.26C1090.06 298.34 1083.51 300.72 1077.24 302.4C1071.26 304.08 1064.99 305.34 1058.44 306.18C1052.18 307.02 1045.2 307.58 1037.51 307.86C1029.82 308.14 1020.99 308.28 1011.03 308.28C1006.75 308.28 1002.2 308.14 997.356 307.86C992.515 307.86 987.674 307.72 982.832 307.44C977.991 307.16 973.149 306.88 968.308 306.6C963.751 306.6 959.337 306.6 955.065 306.6H882.444V300.72Z" fill="#131313"/>
<path d="M1203.63 300.72H1251.05V13.44H1203.63V7.56001H1447.98V80.2201H1443.28C1439.58 69.3001 1435.59 59.7801 1431.32 51.66C1427.05 43.26 1421.92 36.26 1415.94 30.66C1409.96 24.78 1402.84 20.44 1394.58 17.64C1386.32 14.84 1376.36 13.44 1364.68 13.44H1293.77V143.22H1321.53C1330.93 143.22 1338.91 142.38 1345.46 140.7C1352.01 139.02 1357.56 135.94 1362.12 131.46C1366.96 126.7 1370.94 120.4 1374.08 112.56C1377.49 104.44 1380.77 94.0801 1383.9 81.4801H1388.6V212.1H1383.9C1381.91 203.98 1379.77 196.14 1377.49 188.58C1375.5 181.02 1372.51 174.3 1368.52 168.42C1364.82 162.54 1359.7 157.92 1353.15 154.56C1346.88 150.92 1338.62 149.1 1328.37 149.1H1293.77V300.72H1374.5C1390.17 300.72 1403.13 297.5 1413.38 291.06C1423.92 284.34 1432.46 276.5 1439.01 267.54C1445.56 258.3 1450.4 248.78 1453.53 238.98C1456.67 229.18 1458.66 221.06 1459.51 214.62H1464.21V306.6H1203.63V300.72Z" fill="#131313"/>
</svg>
