<svg width="685" height="685" viewBox="0 0 685 685" fill="none" xmlns="http://www.w3.org/2000/svg">
<path d="M134.014 501.416H186.156V181.667H134.014V175.122H285.274V181.667H233.132V501.416H285.274V507.961H134.014V501.416Z" fill="#131313"/>
<path d="M355.241 326.115H398.458C407.227 326.115 415.213 325.024 422.416 322.843C429.619 320.661 435.725 316.921 440.736 311.623C446.06 306.014 450.131 298.534 452.95 289.185C455.768 279.835 457.177 267.993 457.177 253.657C457.177 237.452 454.985 224.518 450.601 214.857C446.53 204.884 441.049 197.405 434.16 192.419C427.583 187.432 420.067 184.16 411.611 182.602C403.469 181.043 395.327 180.264 387.184 180.264C381.547 180.264 375.753 180.42 369.803 180.732C364.166 180.732 359.312 181.043 355.241 181.667V326.115ZM256.123 501.416H308.265V181.667H256.123V175.122H345.376C349.134 175.122 352.892 175.122 356.65 175.122C360.408 174.81 364.166 174.499 367.924 174.187C371.682 174.187 375.44 174.187 379.198 174.187C382.956 173.876 386.714 173.72 390.472 173.72C408.949 173.72 425.234 174.81 439.327 176.992C453.419 178.862 466.573 184.627 478.786 194.288C489.747 202.703 497.42 212.208 501.804 222.804C506.502 233.4 508.85 243.373 508.85 252.722C508.85 257.397 507.911 263.474 506.032 270.954C504.466 278.121 500.708 285.601 494.758 293.392C489.121 300.872 480.822 307.884 469.861 314.428C458.9 320.661 444.338 324.868 426.174 327.05V327.985C431.184 328.608 437.918 329.855 446.373 331.725C455.142 333.283 463.911 336.088 472.679 340.139C481.761 344.191 490.06 349.644 497.576 356.501C505.092 363.045 510.416 371.615 513.548 382.211C515.427 388.444 516.68 395.612 517.306 403.715C518.245 411.506 518.872 419.609 519.185 428.024C519.811 436.438 520.281 444.541 520.594 452.332C521.221 460.123 522.16 466.668 523.413 471.966C525.292 480.069 528.267 487.392 532.338 493.937C536.409 500.481 542.986 503.754 552.068 503.754C556.139 503.754 560.367 502.975 564.751 501.416C569.136 499.858 573.05 497.365 576.495 493.937L580.723 499.079C579.157 500.326 577.278 501.728 575.086 503.286C573.207 504.533 570.701 505.779 567.57 507.026C564.438 508.273 560.523 509.208 555.826 509.831C551.441 510.766 545.961 511.233 539.384 511.233C526.858 511.233 516.366 509.675 507.911 506.559C499.769 503.442 493.192 498.923 488.181 493.002C483.171 486.769 479.412 479.289 476.907 470.563C474.715 461.526 473.149 451.085 472.21 439.243L468.921 396.703C467.669 381.121 464.537 368.966 459.526 360.24C454.516 351.514 448.565 345.125 441.676 341.074C435.099 337.023 428.209 334.685 421.006 334.062C413.804 333.127 407.54 332.66 402.216 332.66H355.241V501.416H407.384V507.961H256.123V501.416Z" fill="#131313"/>
<circle cx="342.477" cy="342.477" r="341.236" stroke="#131313" stroke-width="2.48172"/>
</svg>
