<svg width="33" height="34" viewBox="0 0 33 34" fill="none" xmlns="http://www.w3.org/2000/svg">
<rect y="0.90332" width="32.7596" height="32.7596" rx="16.3798" fill="#FCFCFC"/>
<g clip-path="url(#clip0_129_2552)">
<path d="M19.3788 9.10547H16.6224V20.2459C16.6224 21.5733 15.5624 22.6636 14.2431 22.6636C12.9238 22.6636 11.8637 21.5733 11.8637 20.2459C11.8637 18.9422 12.9003 17.8756 14.1724 17.8282V15.0312C11.369 15.0786 9.10742 17.3778 9.10742 20.2459C9.10742 23.1377 11.4161 25.4605 14.2667 25.4605C17.1172 25.4605 19.4259 23.114 19.4259 20.2459V14.5334C20.4624 15.292 21.7346 15.7423 23.0774 15.766V12.9691C21.0043 12.898 19.3788 11.1913 19.3788 9.10547Z" fill="#131313"/>
</g>
<defs>
<clipPath id="clip0_129_2552">
<rect width="16.3551" height="16.3551" fill="white" transform="translate(7.74414 9.10547)"/>
</clipPath>
</defs>
</svg>
